<svg width="26" height="26" viewBox="0 0 26 26" fill="none" xmlns="http://www.w3.org/2000/svg">
<g clip-path="url(#clip0_255_486)">
<g clip-path="url(#clip1_255_486)">
<g clip-path="url(#clip2_255_486)">
<mask id="mask0_255_486" style="mask-type:luminance" maskUnits="userSpaceOnUse" x="0" y="0" width="25" height="25">
<path d="M24.8445 0.931641H0.844482V24.9316H24.8445V0.931641Z" fill="white"/>
</mask>
<g mask="url(#mask0_255_486)">
<path d="M24.8444 3.93164H5.08648L5.04448 3.58064C4.95853 2.85105 4.60787 2.17837 4.05897 1.69011C3.51008 1.20186 2.80111 0.931983 2.06648 0.931641H0.844482V2.93164H2.06648C2.31141 2.93167 2.54782 3.02159 2.73085 3.18435C2.91389 3.34711 3.03082 3.57138 3.05948 3.81464L4.64448 17.2826C4.73043 18.0122 5.0811 18.6849 5.62999 19.1731C6.17889 19.6614 6.88785 19.9313 7.62248 19.9316H20.8444V17.9316H7.62248C7.37739 17.9316 7.14086 17.8415 6.95781 17.6785C6.77475 17.5156 6.65791 17.291 6.62948 17.0476L6.49848 15.9316H22.6804L24.8444 3.93164ZM21.0084 13.9316H6.26348L5.32248 5.93164H22.4514L21.0084 13.9316Z" fill="#534C45"/>
<path d="M7.84448 24.9316C8.94905 24.9316 9.84448 24.0362 9.84448 22.9316C9.84448 21.827 8.94905 20.9316 7.84448 20.9316C6.73991 20.9316 5.84448 21.827 5.84448 22.9316C5.84448 24.0362 6.73991 24.9316 7.84448 24.9316Z" fill="#534C45"/>
<path d="M17.8445 24.9316C18.9491 24.9316 19.8445 24.0362 19.8445 22.9316C19.8445 21.827 18.9491 20.9316 17.8445 20.9316C16.74 20.9316 15.8445 21.827 15.8445 22.9316C15.8445 24.0362 16.74 24.9316 17.8445 24.9316Z" fill="#534C45"/>
</g>
</g>
</g>
</g>
<defs>
<clipPath id="clip0_255_486">
<rect width="25" height="24.724" fill="white" transform="translate(0.350342 0.564941)"/>
</clipPath>
<clipPath id="clip1_255_486">
<rect width="25" height="25" fill="white" transform="translate(0.350342 0.564941)"/>
</clipPath>
<clipPath id="clip2_255_486">
<rect width="25" height="25" fill="white" transform="translate(0.350342 0.564941)"/>
</clipPath>
</defs>
</svg>
