<svg width="60" height="67" viewBox="0 0 60 67" fill="none" xmlns="http://www.w3.org/2000/svg">
    <g clip-path="url(#clip0_109_490)">
        <g clip-path="url(#clip1_109_490)">
            <mask id="mask0_109_490" style="mask-type:luminance" maskUnits="userSpaceOnUse" x="0"
                y="0" width="60" height="60">
                <path d="M59.6295 0H0.324463V59.305H59.6295V0Z" fill="white" />
            </mask>
            <g mask="url(#mask0_109_490)">
                <path
                    d="M40.2857 57.4287C48.8067 57.4287 55.7143 50.5211 55.7143 42.0001C55.7143 33.4791 48.8067 26.5715 40.2857 26.5715C31.7648 26.5715 24.8572 33.4791 24.8572 42.0001C24.8572 50.5211 31.7648 57.4287 40.2857 57.4287Z"
                    fill="#FDC040" />
                <path
                    d="M43.4069 25.6726V14.4494C43.4069 14.1281 43.2585 13.8313 43.0486 13.5964L30.4656 0.383235C30.2308 0.136191 29.8968 0 29.5634 0H9.61349C5.93043 0 2.98853 3.00344 2.98853 6.68693V44.4109C2.98853 48.0944 5.93043 51.0485 9.61349 51.0485H25.3609C28.3395 55.9926 33.7536 59.305 39.9211 59.305C49.2903 59.305 56.9414 51.691 56.9414 42.3097C56.9541 34.1147 51.0702 27.2672 43.4069 25.6726ZM30.7995 4.33865L39.2416 13.2255H33.7659C32.1343 13.2255 30.7995 11.8785 30.7995 10.2469V4.33865ZM9.61349 48.5763C7.30229 48.5763 5.46077 46.7221 5.46077 44.4109V6.68693C5.46077 4.36309 7.30229 2.47225 9.61349 2.47225H28.3272V10.2469C28.3272 13.2503 30.7624 15.6977 33.7659 15.6977H40.9347V25.3509C40.5641 25.3388 40.2672 25.3017 39.9461 25.3017C35.6322 25.3017 31.6646 26.9581 28.6734 29.5539H12.9757C12.2957 29.5539 11.7396 30.11 11.7396 30.7895C11.7396 31.4696 12.2957 32.0257 12.9757 32.0257H26.3744C25.4967 33.2618 24.7673 34.4979 24.199 35.8575H12.9757C12.2957 35.8575 11.7396 36.4137 11.7396 37.0937C11.7396 37.7733 12.2957 38.3298 12.9757 38.3298H23.3954C23.0864 39.566 22.9258 40.9378 22.9258 42.3097C22.9258 44.5344 23.3584 46.7348 24.137 48.5889H9.61349V48.5763ZM39.9338 56.8455C31.9243 56.8455 25.4103 50.3313 25.4103 42.3219C25.4103 34.3125 31.9116 27.7983 39.9338 27.7983C47.9555 27.7983 54.4569 34.3125 54.4569 42.3219C54.4569 50.3313 47.9433 56.8455 39.9338 56.8455Z"
                    fill="#612902" />
                <path
                    d="M12.9758 25.8333H25.4968C26.1769 25.8333 26.733 25.2768 26.733 24.5973C26.733 23.9172 26.1769 23.3611 25.4968 23.3611H12.9758C12.2958 23.3611 11.7397 23.9172 11.7397 24.5973C11.7397 25.2768 12.2958 25.8333 12.9758 25.8333Z"
                    fill="#612902" />
                <path
                    d="M39.5257 34.6955C39.6248 34.72 39.7234 34.7327 39.8225 34.7327C39.946 34.7327 40.0574 34.72 40.1686 34.6829C41.8002 34.8191 43.0735 36.1787 43.0735 37.8352C43.0735 38.5148 43.6295 39.0708 44.3091 39.0708C44.9892 39.0708 45.5452 38.5148 45.5452 37.8352C45.5452 35.1159 43.6173 32.8414 41.0586 32.3098V31.5188C41.0586 30.8387 40.5021 30.2827 39.8225 30.2827C39.1424 30.2827 38.5863 30.8387 38.5863 31.5188V32.3595C36.1142 32.9527 34.2726 35.1901 34.2726 37.8352C34.2726 40.9499 36.8064 43.4715 39.9089 43.4715C41.6518 43.4715 43.0735 44.8927 43.0735 46.6355C43.0735 48.3785 41.664 49.8123 39.9089 49.8123C38.1661 49.8123 36.7448 48.3906 36.7448 46.6478C36.7448 45.9682 36.1883 45.4116 35.5088 45.4116C34.8287 45.4116 34.2726 45.9682 34.2726 46.6478C34.2726 49.3055 36.1142 51.5303 38.5863 52.1235V53.3967C38.5863 54.0767 39.1424 54.6329 39.8225 54.6329C40.5021 54.6329 41.0586 54.0767 41.0586 53.3967V52.1606C43.6173 51.6289 45.5452 49.3548 45.5452 46.6355C45.5452 43.5209 43.0114 40.9992 39.9089 40.9992C38.1661 40.9992 36.7448 39.5777 36.7448 37.8352C36.7448 36.228 37.9561 34.8811 39.5257 34.6955Z"
                    fill="#612902" />
            </g>
        </g>
    </g>
    <defs>
        <clipPath id="clip0_109_490">
            <rect width="60" height="60" fill="white" />
        </clipPath>
        <clipPath id="clip1_109_490">
            <rect width="60" height="60" fill="white" />
        </clipPath>
    </defs>
</svg>