<svg width="60" height="60" viewBox="0 0 60 60" fill="none" xmlns="http://www.w3.org/2000/svg">
<g clip-path="url(#clip0_109_471)">
<g clip-path="url(#clip1_109_471)">
<mask id="mask0_109_471" style="mask-type:luminance" maskUnits="userSpaceOnUse" x="0" y="0" width="60" height="60">
<path d="M59.4671 0H0.162109V59.305H59.4671V0Z" fill="white"/>
</mask>
<g mask="url(#mask0_109_471)">
<path d="M38.1428 28.2857L41.1428 23.5714L45.4285 21.4286C46 21.2857 47.2285 21.0857 47.5714 21.4286C47.9143 21.7714 52.8571 28.4286 55.2857 31.7143L57.4285 35.5714C57 36.4286 56.0571 38.2286 55.7143 38.5714C55.3714 38.9143 52.1428 40.4286 50.5714 41.1429C49.7143 41.2857 47.9143 41.5714 47.5714 41.5714C47.2285 41.5714 43.1428 36.1429 41.1428 33.4286L38.8928 29.5714L38.1428 28.2857Z" fill="#FDC040"/>
<path d="M47.5713 41.5715C47.2284 41.5715 43.1427 36.143 41.1427 33.4287L38.8927 29.5715H37.2856H32.9999C32.5713 29.5715 30.4284 30.4287 29.5713 30.8572L26.9999 32.143C26.1427 32.5715 25.2856 33.4287 24.857 33.8572C24.4284 34.2858 23.5713 35.5715 23.5713 36.0001C23.5713 36.4287 23.5713 37.2858 23.9999 37.7144C24.4284 38.143 25.2856 38.5715 25.7141 38.5715H28.2856C28.9713 38.5715 30.857 37.7144 31.7141 37.2858C31.9998 37.4287 32.657 37.8001 32.9999 38.143C33.3427 38.4858 36.2855 40.5715 37.7141 41.5715L41.1427 45.0001C41.7142 45.2858 42.9427 45.7715 43.2856 45.4287C43.6284 45.0858 44.857 44.143 45.4284 43.7144L46.7141 42.8572L47.5713 41.5715Z" fill="#FDC040"/>
<path d="M13.2856 46.2856C13.2856 46.9714 14.4285 48.2856 14.9999 48.8571L17.9999 51.4285L19.7142 52.7142L21.4285 54.4285C22 54.7142 23.1428 55.3714 23.1428 55.7142C23.1428 56.0571 24.8571 56.4285 25.7142 56.5714C26.1428 56.2857 27.0856 55.6285 27.4285 55.2856C27.8571 54.8571 27.8571 54.8571 27.8571 53.9999C27.8571 53.1428 27.8571 52.2856 27.4285 51.4285C26.9999 50.5714 26.9999 48.8571 26.5714 48.4285C26.1428 47.9999 24.4285 47.1428 24.4285 46.7142C24.4285 46.2856 23.1428 44.5714 22.7142 44.1428C22.2856 43.7142 21.4285 41.9999 20.9999 41.5714C20.5714 41.1428 19.2856 40.2856 18.4285 40.7142C17.5714 41.1428 14.9999 43.2856 14.5714 43.7142C14.2285 44.0571 13.5713 45.5714 13.2856 46.2856Z" fill="#FDC040"/>
<path d="M21.4284 4.28564C23.9999 7.85708 31.3713 14.8285 40.2856 14.1428L38.5713 19.2856L35.9999 21.4285L27.857 23.9999L21.4284 21.8571L17.5713 14.9999L17.9999 9.4285L20.1427 5.57136L21.4284 4.28564Z" fill="#FDC040"/>
<path d="M28.8559 15.4071C28.4034 15.4071 27.8486 15.3409 27.4687 14.9175C27.3366 14.7688 27.2209 14.6299 27.1087 14.5141C26.2038 13.5617 24.6449 14.8845 25.5894 16.1211L25.8174 16.4154C25.9659 16.6008 26.2335 16.8156 26.6166 17.0604C26.9898 17.2983 27.4059 17.4703 27.8683 17.5728V19.2065C27.8683 19.7686 28.3272 20.2316 28.8889 20.2316C29.4537 20.2316 29.9325 19.7686 29.9325 19.2065V17.5629C30.6724 17.3912 31.3065 17.0306 31.825 16.4851C32.3466 15.9393 32.6076 15.2152 32.6076 14.3124C32.6076 13.6974 32.4889 13.1849 32.251 12.7714C32.0132 12.3614 31.7226 12.0738 31.3758 11.9116C31.0257 11.7495 30.6459 11.6073 30.2264 11.4851C29.8104 11.3628 29.4306 11.2767 29.0804 11.2239C28.7337 11.1741 28.443 11.0683 28.2052 10.9131C27.9673 10.7541 27.8485 10.5492 27.8485 10.2945C27.8485 9.07774 29.632 9.22646 30.4179 9.88783C31.5772 10.8633 32.8751 9.07775 31.5309 8.06918L31.3757 7.93018C31.2699 7.84771 31.085 7.74509 30.8175 7.61605C30.5532 7.48725 30.2559 7.39122 29.9324 7.32173V6.33311V5.90327C29.9324 5.34103 29.4732 4.87817 28.9086 4.87817C28.347 4.87817 27.8848 5.34092 27.8848 5.90327V7.30528C27.1316 7.45412 26.5074 7.8279 26.0749 8.37995C25.639 8.94223 25.4177 9.564 25.4177 10.2581C25.4177 10.956 25.5797 11.5281 25.9032 11.9811C26.2268 12.4339 26.6199 12.7515 27.0856 12.9367C27.5479 13.1219 28.0102 13.2708 28.4726 13.3797C28.9382 13.4924 29.3314 13.6145 29.6549 13.7568C29.9786 13.8957 30.1404 14.0908 30.1404 14.3454C30.1405 15.0531 29.7113 15.4071 28.8559 15.4071Z" fill="#612902"/>
<path d="M58.2427 33.4574L48.7251 21.2665C48.0841 20.4432 47.1121 19.9709 46.0586 19.9709C45.3151 19.9709 44.6112 20.207 44.0204 20.6552L37.7918 25.4033C37.0788 25.9466 36.6233 26.7352 36.5091 27.6236C36.4921 27.756 36.484 27.888 36.4826 28.0194C34.1081 27.8395 31.6555 28.0204 29.2736 29.5685L29.1668 29.6379L23.1416 28.7165C23.1539 28.5078 23.1472 28.2967 23.1197 28.0848C23.0048 27.1985 22.5501 26.4118 21.8385 25.8693L15.6083 21.1255C14.1486 20.0093 12.038 20.2805 10.903 21.7316L8.63415 24.6383C8.23707 25.1468 8.32765 25.8809 8.83618 26.2777C9.34472 26.6747 10.0788 26.5841 10.4757 26.0757L12.7439 23.17C13.0873 22.7309 13.7491 22.6445 14.1911 22.9827L20.4228 27.7275C20.6338 27.8884 20.7688 28.1219 20.8029 28.3853C20.837 28.6491 20.7658 28.9102 20.6032 29.119L11.0839 41.3118C10.7428 41.7498 10.0802 41.8354 9.63881 41.5007L3.40985 36.7522C3.19765 36.5905 3.06201 36.3561 3.02807 36.0924C2.99437 35.8298 3.0656 35.5705 3.2295 35.3611L4.84788 33.2879C5.24483 32.7793 5.15437 32.0453 4.64576 31.6485C4.13726 31.2513 3.40325 31.342 3.00618 31.8505L1.38873 33.9226C0.837725 34.627 0.59703 35.5032 0.711007 36.39C0.8251 37.2783 1.28078 38.0669 1.99359 38.6101L8.22456 43.3603C8.83095 43.8203 9.54761 44.0428 10.2596 44.0427C10.6713 44.0427 11.081 43.967 11.4674 43.8211L12.2738 44.9255C11.8354 45.7251 11.7671 46.6856 12.1194 47.6125C12.6229 48.9379 13.811 49.8365 15.0963 49.8792C15.1362 50.0681 15.1914 50.2567 15.2668 50.4436C15.785 51.7273 16.968 52.6011 18.2392 52.6586C18.245 52.6919 18.2494 52.7254 18.2563 52.7588C18.4982 53.9342 19.3999 54.938 20.5534 55.3162C20.8472 55.4125 21.1436 55.462 21.437 55.4707C21.5493 55.9439 21.7842 56.4011 22.1453 56.8023C22.7081 57.4279 23.5298 57.8282 24.4311 57.828C25.0857 57.828 25.7824 57.6156 26.4521 57.1261L27.7747 58.3625C28.4485 58.9913 29.2966 59.3051 30.1366 59.3051C30.9887 59.3051 31.8321 58.9821 32.4763 58.3373C32.8604 57.9529 33.158 57.4955 33.3505 57.014C33.6787 57.1138 33.9993 57.161 34.3069 57.161C35.1733 57.1609 35.9378 56.7951 36.4855 56.2309C36.9337 55.7693 37.2545 55.1549 37.3964 54.4998C37.4437 54.5022 37.4911 54.5042 37.5387 54.5046C37.5505 54.5048 37.5619 54.5048 37.5736 54.5048C38.4949 54.5048 39.3789 54.1479 40.0033 53.5227C40.4407 53.0849 40.7415 52.5459 40.8852 51.9575C41.108 52.0009 41.3318 52.0236 41.5551 52.0236C41.8363 52.0236 42.1167 51.9887 42.393 51.9179C43.5193 51.6293 44.3892 50.749 44.6629 49.6205C44.9155 48.5791 44.6552 47.4821 43.9467 46.485C45.7812 45.0091 46.5232 44.2821 47.3612 42.9227C47.9336 43.3438 48.6305 43.5757 49.3669 43.5757C50.1127 43.5757 50.8179 43.3379 51.4043 42.8896L57.637 38.144C58.348 37.602 58.8028 36.8154 58.9178 35.929C59.0326 35.0417 58.7933 34.1643 58.2427 33.4574ZM15.7074 47.3035C15.5285 47.4652 15.3549 47.5472 15.1916 47.5472C14.8561 47.5472 14.466 47.2116 14.3031 46.783C14.1553 46.3937 14.2242 46.0684 14.5087 45.8158L14.5124 45.8125L14.516 45.8094L18.4512 42.3116C18.7804 42.0196 19.1117 41.8652 19.4095 41.8652C19.8452 41.8652 20.171 42.1961 20.2893 42.5038C20.4158 42.8323 20.3397 43.1255 20.0645 43.3745L19.3785 43.9931L19.3767 43.9947C19.3733 43.9976 19.3701 44.0006 19.3667 44.0036C19.3422 44.0259 19.3168 44.0488 19.2918 44.0714L15.7074 47.3035ZM18.8882 50.0954C18.7109 50.2521 18.5419 50.328 18.3719 50.328C18.0173 50.328 17.6051 49.9949 17.4333 49.5691C17.244 49.1003 17.4686 48.8838 17.5396 48.8152C17.5853 48.7715 17.6401 48.7189 17.6972 48.6578L17.6982 48.6569L17.7103 48.6462C17.9349 48.4455 19.9136 46.6577 20.8591 45.8034L20.9295 45.7399C21.2499 45.4587 21.5744 45.3101 21.8685 45.3101C22.3323 45.3101 22.6776 45.665 22.8021 45.9947C22.926 46.3224 22.8517 46.6093 22.5823 46.8466L22.34 47.0597C22.3382 47.0613 22.3364 47.0626 22.3346 47.0642L22.3329 47.0659L18.8882 50.0954ZM22.3699 52.6166C22.3538 52.6311 22.3386 52.6463 22.323 52.661L22.0489 52.9083C21.8053 53.1284 21.5613 53.1884 21.281 53.0964C20.9267 52.9802 20.6173 52.6403 20.5448 52.2881C20.4817 51.982 20.6042 51.6983 20.9154 51.424L21.3051 51.0834C21.315 51.0749 21.3235 51.0654 21.333 51.0566L23.8861 48.8113C24.4979 48.2705 25.1038 48.2163 25.5071 48.6671C25.5638 48.7307 26.0448 49.3024 25.4576 49.8328L23.8897 51.2477C23.8729 51.2625 23.8558 51.2758 23.8392 51.2909C23.8333 51.2964 23.8284 51.3027 23.8226 51.308L22.3878 52.6026C22.382 52.6076 22.3755 52.6115 22.3699 52.6166ZM23.8821 55.2397C23.759 55.1031 23.5215 54.7488 23.9111 54.3746L25.4753 52.9632C25.5937 52.862 25.7078 52.7817 25.8146 52.7266C25.8194 52.724 25.8244 52.7214 25.8292 52.7189C26.4597 52.3822 26.8014 52.7747 26.8913 52.903C27.0068 53.0679 27.1476 53.3919 26.7935 53.71L25.7219 54.6732C25.7178 54.6768 25.7138 54.6805 25.7098 54.6841L25.2452 55.1016C24.4818 55.7869 24.0088 55.3808 23.8821 55.2397ZM42.3925 49.0698C42.3206 49.3657 42.1095 49.579 41.8131 49.655C41.3217 49.7807 40.6998 49.5079 40.1303 48.9236C40.0876 48.8764 40.0438 48.8298 39.998 48.7848L35.5889 44.4263C35.1299 43.9729 34.3904 43.9771 33.9369 44.4359C33.4834 44.8947 33.4876 45.6343 33.9464 46.0877L38.3485 50.4391C38.3558 50.4469 38.3633 50.4545 38.3705 50.4624C38.5464 50.6432 38.6442 50.8848 38.6453 51.1464C38.6463 51.4227 38.5416 51.6803 38.3503 51.8718C38.1615 52.0609 37.8793 52.1688 37.5742 52.1688C37.5699 52.1688 37.5657 52.1688 37.5614 52.1686C37.2914 52.1661 37.0448 52.0756 36.8713 51.9177C36.7982 51.8232 36.7187 51.7316 36.6312 51.6437L33.4078 48.4164C32.9519 47.9602 32.2123 47.9597 31.7558 48.4154C31.2994 48.8712 31.299 49.6108 31.7547 50.0672L34.8116 53.1279C34.8485 53.1818 34.8894 53.2337 34.9364 53.2824L35.0665 53.4165C35.234 53.7356 35.1301 54.2732 34.8093 54.6038C34.3142 55.1136 33.6175 54.6642 33.1211 54.198L31.7407 52.8984C31.271 52.4562 30.5316 52.4786 30.0895 52.9482C29.6473 53.418 29.6696 54.1573 30.1393 54.5995L31.1938 55.5921C31.1964 55.5945 31.1984 55.5971 31.201 55.5995C31.2251 55.622 31.2614 55.656 31.2632 55.7738C31.2677 56.0476 31.0869 56.4229 30.8236 56.6865C30.4393 57.0711 29.8003 57.0574 29.3695 56.6553L28.2135 55.5749L28.3548 55.4478C29.501 54.4185 29.686 52.8211 28.8047 51.5629C28.5179 51.1535 28.1587 50.8354 27.7557 50.6147C28.3238 49.4945 28.1649 48.1343 27.2481 47.1096C26.731 46.5314 26.0005 46.1365 25.185 46.0491C25.1617 45.756 25.0976 45.4607 24.9876 45.1695C24.5908 44.1189 23.7087 43.3456 22.6706 43.0778C22.7138 42.6124 22.6495 42.1319 22.4698 41.6645C21.9782 40.3873 20.7485 39.529 19.4096 39.529C18.5316 39.529 17.6642 39.8868 16.9003 40.5645L13.9179 43.2154L13.2624 42.3176L22.1542 30.9287L26.2196 31.5505L25.6046 31.9495C22.3103 34.0868 22.0692 36.5724 22.9421 38.1861C23.6407 39.4777 25.0349 40.216 26.5148 40.216C27.1241 40.2159 27.7482 40.0907 28.3439 39.8275C28.3597 39.8204 28.3753 39.8132 28.3906 39.8056L31.4703 38.2786L33.2481 39.8974C33.2499 39.8989 33.2517 39.9001 33.2533 39.9017C33.2551 39.9032 33.2565 39.9048 33.2582 39.9065L41.4755 47.2145C42.1796 47.8405 42.5224 48.5341 42.3925 49.0698ZM42.2942 44.8164L34.8158 38.1654L32.4529 36.014C32.0971 35.6898 31.5787 35.6171 31.1476 35.8311L27.378 37.7003C26.3539 38.1407 25.3465 37.7216 24.9967 37.0749C24.516 36.1863 25.236 34.9733 26.8759 33.9095L30.546 31.5279C32.5359 30.2343 34.6234 30.1345 37.479 30.4659L45.7475 41.0605C44.8749 42.6275 44.4115 43.1249 42.2942 44.8164ZM56.6009 35.6286C56.5669 35.8917 56.4318 36.1252 56.2212 36.2857L49.987 41.0323C49.7631 41.2037 49.5264 41.2396 49.3672 41.2396C49.0395 41.2395 48.7387 41.0952 48.5427 40.8446L39.0267 28.6517C38.8636 28.443 38.7924 28.1837 38.8261 27.9213C38.8601 27.6575 38.9956 27.4229 39.2079 27.2611L45.4347 22.5144C45.6607 22.3432 45.8985 22.3072 46.0585 22.3072C46.3865 22.3072 46.6866 22.4509 46.8828 22.7028L56.4003 34.8938C56.5639 35.104 56.6352 35.3648 56.6009 35.6286Z" fill="#612902"/>
<path d="M22.9607 23.7293C24.7946 24.7189 26.8662 25.2419 28.9517 25.2419C35.904 25.2419 41.5602 19.5794 41.5602 12.6192C41.5602 7.76155 38.7243 3.28193 34.3363 1.20706C32.646 0.406101 30.8343 0 28.9517 0C22.0009 0 16.3462 5.66097 16.3462 12.6192C16.3462 17.2601 18.88 21.5169 22.9607 23.7293ZM28.9517 2.33607C30.4855 2.33607 31.9607 2.66653 33.3368 3.31842C36.9131 5.00943 39.224 8.66031 39.224 12.6192C39.224 18.2913 34.6159 22.9059 28.9518 22.9059C27.2523 22.9059 25.5643 22.4796 24.0722 21.6746C20.7476 19.8719 18.6823 16.4021 18.6823 12.6192C18.6823 6.94911 23.289 2.33607 28.9517 2.33607Z" fill="#612902"/>
<path d="M6.01228 29.8743C6.22737 30.046 6.48464 30.1294 6.74015 30.1294C7.08325 30.1294 7.42321 29.9789 7.65382 29.6897L7.66703 29.6732C8.06942 29.169 7.98683 28.434 7.48262 28.0317C6.97842 27.6295 6.24336 27.7117 5.84108 28.2161L5.82788 28.2328C5.42548 28.7369 5.50807 29.4719 6.01228 29.8743Z" fill="#612902"/>
</g>
</g>
</g>
<defs>
<clipPath id="clip0_109_471">
<rect width="60" height="60" fill="white"/>
</clipPath>
<clipPath id="clip1_109_471">
<rect width="60" height="60" fill="white"/>
</clipPath>
</defs>
</svg>
