<svg width="211" height="118" viewBox="0 0 211 118" fill="none" xmlns="http://www.w3.org/2000/svg">
<path d="M104.137 0.374908C103.831 0.734372 103.76 1.10102 103.545 3.23623C102.725 11.3673 101.312 16.7664 97.3675 26.8601C96.8272 28.2261 95.7596 30.9723 94.9784 32.9638C91.9384 40.7497 90.8969 44.4162 90.7472 47.8239C90.5779 51.6199 91.8668 54.6178 94.705 56.9759C96.5993 58.5503 99.6003 60.0457 102.341 60.7718C102.686 60.8652 103.018 60.9803 103.089 61.0162C103.298 61.1672 104.079 64.8265 104.255 66.5663C104.333 67.3068 104.333 67.616 104.242 67.961C103.936 69.1976 102.237 69.9309 98.0119 70.6426C95.1021 71.1459 94.6269 71.2897 94.0085 71.9151C93.2599 72.6556 93.0516 73.7196 93.1948 76.1999C93.2469 77.0123 93.3445 78.709 93.4161 79.9671C93.4877 81.2252 93.5854 83.4251 93.6374 84.8486C93.9304 92.8862 94.373 95.7762 95.8572 99.1911C96.1502 99.8525 96.3585 100.42 96.3389 100.449C96.3129 100.471 95.7596 100.104 95.0956 99.6369C93.67 98.6304 91.6846 97.4945 89.263 96.2723C86.2881 94.7769 85.0187 93.9646 83.7363 92.7496C82.493 91.5633 81.4645 90.0248 79.4921 86.3655C77.2137 82.1167 76.055 80.3769 74.2714 78.4573C72.6374 76.696 71.29 75.6607 69.2134 74.5392C66.3687 73.0079 63.4394 72.3249 59.8265 72.3177C55.9468 72.3177 52.3014 73.1445 48.1157 74.9921C45.577 76.0993 43.6241 77.1848 39.5426 79.7226C35.051 82.5265 32.8377 83.5042 29.7717 84.065C28.1182 84.3597 26.8619 84.4604 24.4663 84.4604C21.9732 84.4604 20.8795 84.4028 14.3895 83.9212C8.62195 83.4898 2.13187 83.0944 0.999195 83.0944C0.361255 83.0944 0.107379 83.1304 0.0357732 83.231C-0.504525 83.9427 5.09374 84.8486 15.5872 85.7688C20.3588 86.1858 21.55 86.2577 24.5119 86.2577C27.5975 86.2649 28.7822 86.1642 30.7872 85.7688C33.9639 85.1218 36.0925 84.1728 41.2611 81.0814C43.9236 79.4926 46.2019 78.2273 47.7187 77.5299C50.8888 76.0346 54.0981 75.0496 57.0404 74.647C58.4921 74.4529 61.3107 74.4529 62.6647 74.647C66.9676 75.2725 70.7497 77.343 73.5553 80.5997C74.9744 82.2533 76.081 83.9643 78.0795 87.6308C79.9738 91.0889 80.794 92.3542 82.0569 93.7345C83.5606 95.3808 84.9211 96.3082 88.7292 98.2853C90.1483 99.0042 91.5934 99.7878 91.958 100.004C99.2683 104.382 104.092 110.464 106.409 118.185C107.177 120.752 107.562 123.39 107.347 124.735C107.132 126.072 106.754 126.395 105.439 126.316C103.584 126.201 101.169 124.95 96.2022 121.528C91.6195 118.365 89.2174 116.927 86.7893 115.863C83.6387 114.497 81.0348 113.915 76.0029 113.455C70.8148 112.973 69.0572 112.585 64.1554 110.816C58.4465 108.746 56.3439 108.214 53.5838 108.113C51.4096 108.034 50.1728 108.257 48.7797 109.012C47.7056 109.587 47.1393 110.155 46.7357 111.061C46.4233 111.751 46.4167 111.823 46.4493 112.592C46.4883 113.289 46.5339 113.505 46.7943 114.037C47.4257 115.36 48.9099 116.632 51.338 117.969C53.037 118.911 54.0655 119.386 59.0779 121.586C65.3337 124.339 67.6381 125.453 71.4787 127.567C76.9989 130.615 80.6508 133.175 86.0342 137.754C89.6666 140.838 91.3916 141.859 93.7221 142.312C94.8482 142.528 97.2893 142.456 98.8516 142.161C101.84 141.601 108.265 139.544 115.542 136.841C120.828 134.871 124.037 133.218 127.533 130.68C132.571 127.035 138.879 120.608 145.532 112.333C151.208 105.28 153.604 100.967 154.548 96.0782C154.841 94.5828 154.847 92.1529 154.561 91.0673C154.294 90.032 153.982 89.3994 153.5 88.8602C152.725 88.0118 151.658 87.674 150.421 87.8753C146.723 88.4792 139.289 93.5404 125.456 104.863C120.242 109.141 118.218 110.658 116.336 111.744C114.911 112.563 114.019 112.894 113.218 112.894C112.118 112.908 111.702 112.542 110.361 110.385C108.082 106.718 106.676 105.446 101.547 102.419C98.422 100.579 98.2137 100.392 97.4586 98.6807C96.8988 97.4226 96.5212 96.2507 96.2022 94.7554C95.6945 92.3973 95.4992 90.4131 95.2258 84.7479C95.1281 82.6846 94.9784 80.0462 94.9003 78.8959C94.8222 77.7456 94.7571 76.0921 94.7506 75.2366C94.7441 73.4392 94.7962 73.2523 95.4341 72.936C95.6359 72.8425 96.7751 72.5765 97.9663 72.3537C104.391 71.1603 106.019 69.9812 105.797 66.6454C105.739 65.7324 105.452 63.9854 105.107 62.4253C105.003 61.9293 104.945 61.4979 104.971 61.462C105.042 61.3901 105.843 61.4979 105.986 61.5986C106.032 61.6345 106.142 62.5619 106.227 63.6619C106.702 69.974 107.379 73.9928 108.239 75.6607C109.215 77.5299 110.68 78.1554 113.251 77.7815C113.863 77.6953 115.269 77.4221 116.389 77.1777C118.654 76.6816 120.516 76.509 120.939 76.7679C121.42 77.0482 121.525 77.3646 121.518 78.4358C121.505 79.6076 121.447 80.0821 120.809 83.8205C119.494 91.5777 118.979 96.1573 118.973 100.32C118.96 102.283 118.986 102.771 119.123 103.303C119.331 104.152 119.65 104.712 120.086 105.036C120.392 105.259 120.542 105.302 121.075 105.302C121.85 105.302 122.508 104.986 123.569 104.101C125.137 102.786 126.902 100.507 129.199 96.7755C131.777 92.5914 132.272 91.8078 133.079 90.6575C134.251 88.9752 136.497 86.5309 138.541 84.7048C142.967 80.7291 143.892 79.4423 147.055 72.7706C148.637 69.4348 149.49 67.9682 150.57 66.782C151.905 65.3082 153.252 64.8337 154.392 65.4592C155.726 66.1709 156.449 68.0257 156.546 70.9446C156.624 73.3817 156.318 75.5385 155.29 79.5789C154.971 80.837 154.691 82.1167 154.665 82.4186C154.528 83.7271 155.277 84.4963 156.351 84.1728C156.546 84.1153 157.627 83.5042 158.74 82.7996C161.682 80.9664 163.557 80.0677 165.803 79.4279C167.593 78.9246 168.674 78.7737 170.542 78.7737C173.133 78.7737 175.209 79.2194 178.503 80.4631C183.398 82.3395 184.355 82.6846 185.286 82.9291C189.459 84.0362 193.3 84.0218 198.384 82.8356C202.784 81.8219 208.096 79.7155 209.743 78.3279C210.114 78.026 210.192 77.8966 210.212 77.609C210.238 77.2927 210.205 77.228 209.971 77.0986C209.645 76.9045 208.936 76.9045 208.239 77.0914C207.946 77.1561 206.729 77.6378 205.538 78.1554C199.575 80.6932 195.845 81.6278 191.692 81.6278C188.307 81.6278 186.53 81.1964 181.27 79.1116C176.323 77.1489 174.051 76.6025 170.763 76.6097C166.324 76.6169 162.652 77.8966 157.633 81.1821C157.178 81.484 156.787 81.6853 156.768 81.635C156.748 81.5919 156.898 80.9017 157.093 80.1109C158.519 74.4026 158.571 69.974 157.262 66.9186C156.677 65.5526 155.707 64.4671 154.685 64.0357C153.884 63.705 152.673 63.7266 151.905 64.0717C150.623 64.6612 149.509 65.6677 148.422 67.2062C147.596 68.3996 147.055 69.3989 145.363 72.7922C142.59 78.407 141.756 79.5501 137.792 83.1879C133.795 86.8616 132.806 88.1413 128.744 94.8129C127.526 96.8259 126.12 99.033 125.606 99.7375C123.705 102.354 121.642 104.159 120.913 103.857C120.314 103.605 120.19 101.449 120.555 97.5664C120.887 93.9789 121.303 91.1823 122.364 85.3374C123.282 80.2403 123.373 79.6004 123.321 78.1123C123.295 77.1561 123.256 76.9117 123.054 76.4372C122.403 74.8915 121.062 74.3738 118.608 74.7333C118.022 74.8268 116.734 75.0568 115.738 75.2725C112.58 75.9483 111.467 76.013 110.706 75.5745C110.354 75.3803 109.983 74.8699 109.71 74.1869C109.169 72.8785 108.486 68.6656 108.043 63.82C107.848 61.692 107.848 61.6633 108.356 61.7711C108.505 61.7999 109.033 61.7711 109.54 61.7208C111.324 61.5195 112.014 60.8652 112.021 59.3699C112.021 58.7732 110.875 51.0447 110.387 48.435C109.944 46.0051 109.54 44.7829 109.026 44.3084C108.681 43.9849 108.46 43.913 108.089 43.9849C107.275 44.1574 106.748 45.509 106.364 48.4278C106.064 50.7428 105.993 52.0081 105.96 55.7465C105.941 57.7595 105.908 59.4202 105.895 59.4346C105.882 59.4562 105.537 59.4202 105.14 59.3483C104.639 59.2692 104.385 59.1973 104.339 59.0895C104.229 58.8523 102.53 52.763 102.165 51.3179C101.442 48.3703 101.15 46.1704 101.15 43.6326C101.15 40.3831 101.683 37.8021 102.894 35.1134C103.864 32.9638 105.218 31.1089 106.136 30.656C107.256 30.1096 108.265 31.0011 110.23 34.2291C112.021 37.1982 113.101 39.9014 113.648 42.8202C113.947 44.4594 114.058 45.624 114.058 47.5292C114.058 50.1461 113.837 51.6486 112.984 54.8335C112.353 57.2203 112.242 57.8673 112.385 58.5215C112.509 59.1183 112.978 59.6646 113.492 59.8372C114.592 60.1966 116.74 59.6215 119.233 58.2987C122.084 56.7889 123.601 55.3008 124.578 53.0937C125.333 51.3251 125.6 49.5566 125.522 46.724C125.456 44.6679 125.3 43.1725 124.877 40.8216C124.083 36.3715 122.911 32.6115 120.997 28.2692C119.253 24.3151 118.022 22.0793 113.127 13.9266C109.638 8.11773 108.623 6.36355 107.158 3.62445C105.7 0.885345 105.491 0.525881 105.218 0.310205C104.854 0.022635 104.424 0.0513924 104.137 0.374908ZM106.194 4.95446C107.588 7.62167 109.15 10.4039 111.825 14.9475C114.592 19.6277 115.223 20.7205 116.239 22.5681C120.405 30.16 122.469 36.0048 123.425 42.9209C123.699 44.8692 123.77 48.4278 123.569 49.7938C123.23 52.0081 122.586 53.3237 121.186 54.6537C119.643 56.1275 116.122 57.932 114.527 58.083L113.967 58.1261V57.7882C113.967 57.5941 114.169 56.7242 114.416 55.8471C115.445 52.1519 115.686 50.6134 115.686 47.5579C115.686 45.0058 115.562 43.8699 115.022 41.5118C114.338 38.5282 113.218 35.9689 111.181 32.7697C109.697 30.4332 108.688 29.3763 107.575 29.0025C106.377 28.5855 105.387 28.9881 104.111 30.4044C102.061 32.6762 100.512 36.2924 99.8671 40.3328C99.6719 41.5693 99.5937 44.4738 99.7304 45.9476C99.9908 48.9239 100.486 51.2892 101.996 56.6739C102.315 57.7954 102.556 58.7372 102.53 58.766C102.451 58.8451 100.258 58.1118 99.2032 57.6516C94.1126 55.423 91.8864 52.1519 92.2249 47.4142C92.4722 44.0424 93.4422 40.8863 97.1266 31.5403C99.6914 25.0484 100.661 22.4171 101.696 19.1964C103.246 14.3436 104.3 9.28239 104.775 4.26429C104.893 3.04212 104.951 2.61795 105.003 2.68266C105.029 2.69704 105.57 3.7251 106.194 4.95446ZM108.564 47.3423C108.909 48.9886 110.016 56.8608 110.133 58.5072C110.185 59.3124 110.185 59.3483 109.996 59.4705C109.892 59.528 109.371 59.6071 108.857 59.6359C108.063 59.679 107.894 59.6646 107.796 59.5352C107.62 59.3124 107.548 53.6185 107.685 51.2676C107.835 48.6435 108.134 46.3142 108.31 46.4364C108.356 46.4652 108.466 46.875 108.564 47.3423ZM152.146 89.6222C153.318 90.2837 153.747 92.9509 153.168 95.9775C152.491 99.5578 150.252 103.749 146.424 108.623C143.729 112.046 137.649 118.911 134.804 121.729C128.659 127.826 124.545 130.673 117.899 133.448C115.074 134.627 106.761 137.769 104.157 138.646C98.103 140.702 94.8678 140.989 92.1402 139.753C90.9229 139.185 90.0311 138.574 87.9806 136.841C81.829 131.679 79.6027 129.997 75.4691 127.459C71.0686 124.749 66.6746 122.592 59.475 119.601C52.6855 116.79 50.8823 115.863 49.281 114.36C48.7472 113.864 48.2915 113.052 48.2915 112.621C48.2915 111.736 49.3786 110.924 51.0321 110.586C52.0671 110.356 54.0525 110.378 55.5237 110.622C57.5612 110.953 59.143 111.42 64.2921 113.246C66.6226 114.08 69.1939 114.821 70.7431 115.101C71.9019 115.317 74.1216 115.583 77.0184 115.841C80.2342 116.129 82.3563 116.56 84.6998 117.409C87.3882 118.372 89.5624 119.573 94.2559 122.678C98.9558 125.791 101.566 127.215 103.669 127.812C104.3 127.998 104.704 128.049 105.57 128.049C106.605 128.049 106.709 128.027 107.177 127.776C108.968 126.805 109.352 124.217 108.401 119.752C107.288 114.519 104.71 109.285 101.28 105.273C100.857 104.784 100.557 104.375 100.609 104.375C100.674 104.375 101.28 104.734 101.97 105.173C105.739 107.559 107.093 108.853 109.215 112.089C109.964 113.239 110.738 114.109 111.298 114.418C113.453 115.633 116.206 114.569 121.375 110.485C122.137 109.882 124.337 108.091 126.257 106.51C131.745 101.995 134.628 99.716 139.159 96.3658C143.56 93.1162 145.955 91.5058 147.869 90.4993C150.03 89.3706 151.241 89.1262 152.146 89.6222Z" fill="#E0C2BC"/>
</svg>
