<svg width="60" height="67" viewBox="0 0 60 67" fill="none" xmlns="http://www.w3.org/2000/svg">
<g clip-path="url(#clip0_109_450)">
<g clip-path="url(#clip1_109_450)">
<mask id="mask0_109_450" style="mask-type:luminance" maskUnits="userSpaceOnUse" x="0" y="0" width="60" height="60">
<path d="M59.305 0H0V59.305H59.305V0Z" fill="white"/>
</mask>
<g mask="url(#mask0_109_450)">
<path d="M37.7143 4.28589H29.1429L18.8572 14.5716L24 17.5716L29.1429 12.4287L39.8572 23.143L43.7143 27.8573L49.2857 28.7145L51.8572 24.0002V7.71446L47.5715 4.28589H37.7143Z" fill="#FDC040"/>
<path d="M55.3668 12.3328H53.048L53.0502 8.18732C53.0516 5.40423 50.7888 3.13876 48.0052 3.13739L30.4063 3.12744H30.4041C29.4023 3.12744 28.4603 3.51747 27.7517 4.22602L1.47819 30.4995C0.524855 31.4529 0 32.7202 0 34.0686C0 35.4169 0.524855 36.6842 1.47819 37.6376L18.5288 54.6882C19.5129 55.6723 20.8055 56.1641 22.0977 56.1641C23.3905 56.1641 24.6831 55.6723 25.6672 54.6882L42.2092 38.1462C42.6617 37.6937 42.6617 36.9602 42.2092 36.5083C41.7567 36.0558 41.0233 36.0558 40.5709 36.5083L24.0289 53.0503C22.9642 54.1149 21.2318 54.1149 20.1671 53.0503L3.11655 35.9997C2.60075 35.4839 2.3166 34.7979 2.3166 34.0686C2.3166 33.3392 2.60075 32.6533 3.11655 32.1374L29.3896 5.86438C29.6607 5.59336 30.0208 5.44404 30.4041 5.44404H30.405L48.0039 5.454C49.5097 5.45445 50.7345 6.68062 50.7336 8.18641L50.7282 17.8927H45.5109C45.0615 17.8927 44.6547 17.7089 44.3607 17.413C44.8453 17.2053 45.2996 16.9053 45.6945 16.5103C47.3591 14.8453 47.3591 12.1369 45.6945 10.4723C44.0295 8.8072 41.3211 8.8072 39.656 10.4723C37.9914 12.1369 37.9914 14.8453 39.656 16.5103C40.2731 17.1275 41.0342 17.5153 41.8319 17.675C42.3988 19.155 43.8336 20.2093 45.5109 20.2093H50.7268L50.7237 25.7618C50.7237 26.1451 50.5743 26.5048 50.3033 26.7753L47.1234 29.9557C46.6709 30.4081 46.6709 31.1416 47.1234 31.5941C47.5755 32.0461 48.3088 32.0461 48.7613 31.5941L51.9417 28.4137C52.6493 27.7056 53.0398 26.7645 53.0403 25.7632L53.0434 20.2093H55.3668C57.5382 20.2093 59.305 18.4429 59.305 16.271C59.305 14.0996 57.5382 12.3328 55.3668 12.3328ZM41.2943 12.1102C41.6753 11.7292 42.1753 11.5392 42.6757 11.5392C43.1757 11.5392 43.6756 11.7296 44.0566 12.1102C44.177 12.231 44.2765 12.3644 44.3589 12.5052C43.0875 12.8947 42.0885 13.9123 41.7233 15.1946C41.5699 15.1091 41.4247 15.0027 41.2943 14.8724C40.5328 14.1105 40.5328 12.8717 41.2943 12.1102ZM55.3668 17.8927H53.0448L53.0466 14.6494H55.3668C56.2609 14.6494 56.9884 15.3769 56.9884 16.271C56.9884 17.165 56.2609 17.8927 55.3668 17.8927Z" fill="#612902"/>
<path d="M18.6967 32.3519C18.8393 32.8644 19.3049 33.1998 19.8116 33.1998C19.9148 33.1998 20.0193 33.1862 20.1229 33.1572L32.0136 29.8475C32.6298 29.676 32.9904 29.0371 32.819 28.4208C32.6475 27.8051 32.0091 27.4445 31.3924 27.6159L19.5017 30.9252C18.8859 31.0972 18.5253 31.7356 18.6967 32.3519Z" fill="#612902"/>
<path d="M23.9305 33.8803C23.2853 34.5255 22.9302 35.3829 22.9302 36.2955C22.9302 37.2077 23.2853 38.0651 23.9305 38.7104C24.5965 39.3759 25.4707 39.7089 26.3453 39.7089C27.2199 39.7089 28.0945 39.3759 28.7605 38.7104C30.0921 37.3787 30.0921 35.2118 28.7605 33.8803C27.429 32.5487 25.2621 32.5487 23.9305 33.8803ZM27.1222 37.0719C26.6937 37.5004 25.9969 37.5004 25.5685 37.0719C25.3608 36.8648 25.2468 36.5888 25.2468 36.2951C25.2468 36.0019 25.3612 35.7259 25.5685 35.5182C25.7829 35.3042 26.0643 35.1969 26.3453 35.1969C26.6268 35.1969 26.9082 35.3042 27.1222 35.5182C27.5507 35.9467 27.5507 36.644 27.1222 37.0719Z" fill="#612902"/>
<path d="M29.3345 26.9839C30.6661 25.6519 30.6661 23.4855 29.3345 22.1539C28.6894 21.5088 27.8315 21.1536 26.9193 21.1536C26.0071 21.1536 25.1493 21.5088 24.5045 22.1539C23.173 23.4855 23.173 25.6519 24.5045 26.9839C25.1705 27.6495 26.0447 27.9825 26.9193 27.9825C27.7939 27.9825 28.6685 27.6495 29.3345 26.9839ZM26.1425 23.7918C26.3501 23.5842 26.6261 23.4702 26.9193 23.4702C27.2129 23.4702 27.4889 23.5842 27.6962 23.7918C28.1247 24.2203 28.1247 24.9171 27.6962 25.3456C27.2681 25.7741 26.5709 25.7741 26.1425 25.3456C25.7144 24.9171 25.7144 24.2203 26.1425 23.7918Z" fill="#612902"/>
<path d="M11.5204 29.9585C11.068 29.506 10.3345 29.506 9.88201 29.9585L6.59081 33.2497C6.37363 33.4669 6.25146 33.7614 6.25146 34.0686C6.25146 34.3759 6.37363 34.6704 6.59081 34.8876L21.2791 49.5758C21.5049 49.8016 21.8017 49.9148 22.098 49.9148C22.3944 49.9148 22.6907 49.8016 22.917 49.5758L44.8776 27.6147C45.3301 27.1622 45.3301 26.4288 44.8776 25.9764L30.1899 11.2886C29.9727 11.0714 29.6781 10.9492 29.3709 10.9492C29.0637 10.9492 28.7691 11.0714 28.552 11.2886L16.4345 23.4059C15.9821 23.8584 15.9821 24.5918 16.4345 25.0442C16.8866 25.4963 17.62 25.4963 18.0724 25.0442L29.3709 13.7459L42.4208 26.7957L22.098 47.1185L9.0481 34.0686L11.5204 31.5964C11.9724 31.1439 11.9728 30.4109 11.5204 29.9585Z" fill="#612902"/>
<path d="M44.6664 32.8926C44.3614 32.8926 44.0628 33.0165 43.8474 33.2319C43.6321 33.4473 43.5081 33.7464 43.5081 34.0508C43.5081 34.3554 43.6321 34.6544 43.8474 34.8698C44.0628 35.0852 44.3614 35.2092 44.6664 35.2092C44.9709 35.2092 45.2695 35.0852 45.4853 34.8698C45.7007 34.6544 45.8247 34.3554 45.8247 34.0508C45.8247 33.7464 45.7007 33.4473 45.4853 33.2319C45.2695 33.0165 44.9709 32.8926 44.6664 32.8926Z" fill="#612902"/>
<path d="M14.7958 28.3195C15.0126 28.1042 15.1357 27.8065 15.1357 27.5006C15.1357 27.1961 15.0126 26.8984 14.7958 26.6816C14.5805 26.4663 14.2827 26.3423 13.9773 26.3423C13.6724 26.3423 13.3737 26.4663 13.1584 26.6816C12.9426 26.897 12.8191 27.1961 12.8191 27.5006C12.8191 27.8065 12.9426 28.1042 13.1584 28.3195C13.3747 28.5363 13.6724 28.6589 13.9773 28.6589C14.2827 28.6589 14.5805 28.5363 14.7958 28.3195Z" fill="#612902"/>
</g>
</g>
</g>
<defs>
<clipPath id="clip0_109_450">
<rect width="60" height="60" fill="white"/>
</clipPath>
<clipPath id="clip1_109_450">
<rect width="60" height="60" fill="white"/>
</clipPath>
</defs>
</svg>
