<svg width="60" height="67" viewBox="0 0 60 67" fill="none" xmlns="http://www.w3.org/2000/svg">
<g clip-path="url(#clip0_109_506)">
<g clip-path="url(#clip1_109_506)">
<g clip-path="url(#clip2_109_506)">
<mask id="mask0_109_506" style="mask-type:luminance" maskUnits="userSpaceOnUse" x="0" y="2" width="60" height="60">
<path d="M59.7916 2H0.486572V61.305H59.7916V2Z" fill="white"/>
</mask>
<g mask="url(#mask0_109_506)">
<path d="M44.0168 57.9459C43.4162 57.9459 42.9224 58.4029 42.8641 58.9881H34.1476L32.7725 50.7076L34.3009 49.1792C34.5181 48.962 34.6402 48.6673 34.6402 48.3602C34.6402 48.053 34.5181 47.7584 34.3009 47.5411L32.9485 46.1887H35.2595C37.7957 46.1887 40.1557 47.4475 41.5722 49.5561C41.929 50.0871 42.6487 50.2282 43.1795 49.8717C43.7105 49.5148 43.8518 48.7952 43.4951 48.2641C41.662 45.5356 38.6169 43.8989 35.3374 43.8732C36.4595 42.6306 37.1439 40.9856 37.1439 39.1835V37.4847C37.1439 33.6219 34.0014 30.4795 30.1387 30.4795C26.276 30.4795 23.1335 33.6219 23.1335 37.4847V39.1835C23.1335 40.9861 23.8182 42.6313 24.9406 43.8741C19.5089 43.916 15.1025 48.3461 15.1025 53.7876V60.1464C15.1025 60.7861 15.6211 61.3048 16.2609 61.3048H44.0165C44.6563 61.3048 45.1749 60.7861 45.1749 60.1464V59.1042C45.1751 58.4646 44.6565 57.9459 44.0168 57.9459ZM30.1523 50.0518L28.4606 48.3602L30.1523 46.6686L31.844 48.3602L30.1523 50.0518ZM29.5527 52.6796C29.7365 52.791 29.9441 52.8481 30.1522 52.8481C30.3602 52.8481 30.5679 52.7911 30.7516 52.6796L31.7993 58.9881H28.505L29.5527 52.6796ZM25.4504 37.4847C25.4504 34.8994 27.5536 32.7961 30.139 32.7961C32.7243 32.7961 34.8275 34.8993 34.8275 37.4847V39.1835C34.8275 41.7688 32.7243 43.8721 30.139 43.8721C27.5536 43.8721 25.4504 41.7688 25.4504 39.1835V37.4847ZM17.4194 53.7876C17.4194 49.5975 20.8283 46.1887 25.0183 46.1887H27.3557L26.0033 47.5411C25.7861 47.7584 25.6641 48.053 25.6641 48.3602C25.6641 48.6673 25.7861 48.962 26.0033 49.1792L27.5318 50.7076L26.1567 58.9881H17.4193L17.4194 53.7876Z" fill="#612902"/>
<path d="M24 3.28564C24.3429 3.28564 32.1429 3.57136 36 3.71422V16.1428L24 15.7142V3.28564Z" fill="#FDC040"/>
<path d="M51.4286 3.71411L45.4286 14.857H58.2857L52.2857 4.14268L51.4286 3.71411Z" fill="#FDC040"/>
<path d="M24 3.28564C24.3429 3.28564 32.1429 3.57136 36 3.71422V16.1428L24 15.7142V3.28564Z" stroke="black" stroke-width="0.857143" stroke-linecap="round" stroke-linejoin="round"/>
<path d="M51.4286 3.71411L45.4286 14.857H58.2857L52.2857 4.14268L51.4286 3.71411Z" stroke="black" stroke-width="0.857143" stroke-linecap="round" stroke-linejoin="round"/>
<path d="M15.2995 9.40739C15.2995 5.32344 11.9769 2.00098 7.89309 2.00098C3.80927 2.00098 0.486572 5.32356 0.486572 9.40739C0.486572 13.4912 3.80916 16.8138 7.89298 16.8138C11.9768 16.8138 15.2995 13.4913 15.2995 9.40739ZM2.80317 9.40739C2.80317 6.60094 5.08641 4.31758 7.89298 4.31758C10.6996 4.31758 12.9827 6.60094 12.9827 9.40739C12.9827 12.2138 10.6996 14.4972 7.89298 14.4972C5.08641 14.4972 2.80317 12.214 2.80317 9.40739Z" fill="#612902"/>
<path d="M23.891 16.813H36.3874C37.0271 16.813 37.5457 16.2942 37.5457 15.6546V3.1583C37.5457 2.51869 37.0271 2 36.3874 2H23.891C23.2514 2 22.7328 2.51869 22.7328 3.1583V15.6546C22.7328 16.2942 23.2514 16.813 23.891 16.813ZM25.0494 4.31661H35.2291V14.4964H25.0494V4.31661Z" fill="#612902"/>
<path d="M59.6364 14.6151L52.9528 3.03911C52.746 2.68073 52.3636 2.45996 51.9498 2.45996C51.5359 2.45996 51.1535 2.68073 50.9467 3.03911L44.2631 14.6151C44.0562 14.9736 44.0562 15.4151 44.2631 15.7735C44.47 16.1318 44.8524 16.3526 45.2662 16.3526H58.6333C59.0471 16.3526 59.4295 16.1318 59.6364 15.7735C59.8433 15.4151 59.8433 14.9736 59.6364 14.6151ZM47.2724 14.036L51.9496 5.93487L56.6269 14.036H47.2724Z" fill="#612902"/>
<path d="M30.139 28.2057C30.7788 28.2057 31.2974 27.6869 31.2974 27.0473V23.7424L31.3442 23.8078C31.5704 24.1239 31.9261 24.2922 32.2872 24.2922C32.5205 24.2922 32.7561 24.2219 32.9604 24.0757C33.4806 23.7034 33.6005 22.9799 33.2282 22.4597L31.0811 19.4594C30.8636 19.1554 30.5128 18.9751 30.1392 18.9751C29.7655 18.9751 29.4147 19.1554 29.1972 19.4594L27.05 22.4597C26.6778 22.9799 26.7977 23.7034 27.3179 24.0757C27.8381 24.448 28.5615 24.3282 28.934 23.8079L28.9808 23.7424V27.0473C28.9808 27.6871 29.4993 28.2057 30.139 28.2057Z" fill="#612902"/>
<path d="M20.6024 37.5868C20.6024 36.9471 20.0838 36.4284 19.4441 36.4284H9.05793V23.7424L9.1049 23.8078C9.3311 24.1239 9.68664 24.2922 10.0478 24.2922C10.2811 24.2922 10.5167 24.2219 10.721 24.0757C11.2412 23.7034 11.3611 22.9799 10.9888 22.4597L8.84167 19.4594C8.62413 19.1554 8.27343 18.9751 7.89976 18.9751C7.52609 18.9751 7.17536 19.1554 6.95783 19.4594L4.81069 22.4597C4.43841 22.9799 4.5583 23.7034 5.07849 24.0757C5.59857 24.448 6.32216 24.3282 6.69455 23.8079L6.74134 23.7424V37.5868C6.74134 38.2264 7.25992 38.745 7.89964 38.745H19.4441C20.0837 38.745 20.6024 38.2264 20.6024 37.5868Z" fill="#612902"/>
<path d="M53.3205 19.4594C53.1029 19.1554 52.7522 18.9751 52.3786 18.9751C52.0049 18.9751 51.6542 19.1554 51.4366 19.4594L49.2895 22.4597C48.9172 22.9799 49.0371 23.7034 49.5573 24.0757C50.0775 24.448 50.8011 24.3282 51.1733 23.8079L51.2202 23.7424V36.4285H40.8341C40.1944 36.4285 39.6758 36.9472 39.6758 37.5868C39.6758 38.2264 40.1944 38.7451 40.8341 38.7451H52.3786C53.0182 38.7451 53.5368 38.2264 53.5368 37.5868V23.7424L53.5838 23.8079C53.81 24.124 54.1656 24.2923 54.5267 24.2923C54.76 24.2923 54.9956 24.222 55.1999 24.0758C55.7201 23.7035 55.84 22.9801 55.4678 22.4599L53.3205 19.4594Z" fill="#612902"/>
<path d="M44.0165 55.0505C44.6562 55.0505 45.1748 54.5319 45.1748 53.8922C45.1748 53.2525 44.6562 52.7339 44.0165 52.7339C43.3767 52.7339 42.8582 53.2525 42.8582 53.8922C42.8582 54.5319 43.3767 55.0505 44.0165 55.0505Z" fill="#612902"/>
</g>
</g>
</g>
</g>
<defs>
<clipPath id="clip0_109_506">
<rect width="60" height="60" fill="white" transform="translate(0 2)"/>
</clipPath>
<clipPath id="clip1_109_506">
<rect width="60" height="60" fill="white" transform="translate(0 2)"/>
</clipPath>
<clipPath id="clip2_109_506">
<rect width="60" height="60" fill="white" transform="translate(0 2)"/>
</clipPath>
</defs>
</svg>
