<svg width="60" height="67" viewBox="0 0 60 67" fill="none" xmlns="http://www.w3.org/2000/svg">
<g clip-path="url(#clip0_109_530)">
<g clip-path="url(#clip1_109_530)">
<g clip-path="url(#clip2_109_530)">
<mask id="mask0_109_530" style="mask-type:luminance" maskUnits="userSpaceOnUse" x="0" y="0" width="60" height="60">
<path d="M59.8379 0H0.648682V59.1892H59.8379V0Z" fill="white"/>
</mask>
<g mask="url(#mask0_109_530)">
<path d="M12.4286 14.1428V30C15.4286 28.9999 22.8 28.8 28.2857 36C29.5714 38.7143 31.6286 45 29.5714 48.4285L35.5714 51.8571V26.1428L12.4286 14.1428Z" fill="#FDC040"/>
<path d="M59.2386 12.8015L36.1865 0.143318C35.8401 -0.046796 35.4202 -0.046796 35.0738 0.143318L26.385 4.91424C26.2017 4.96256 26.0305 5.05468 25.8888 5.18699L12.0221 12.8015C11.6523 13.0042 11.4224 13.3926 11.4224 13.8148V29.1243C9.08326 29.8558 6.93959 31.1459 5.15722 32.9288C0.511384 37.5741 -0.673104 44.6594 2.20977 50.5593C2.48974 51.1328 3.18202 51.3708 3.75552 51.0903C4.32947 50.8099 4.567 50.1177 4.28703 49.5441C1.83767 44.5311 2.84423 38.5112 6.79193 34.5635C9.26069 32.0947 12.5428 30.735 16.0339 30.735C19.5251 30.735 22.8071 32.0947 25.2759 34.5635C27.7442 37.0318 29.104 40.3139 29.104 43.8051C29.104 47.2962 27.7442 50.5783 25.2755 53.047C21.3278 56.9947 15.3078 58.0013 10.2948 55.5519C9.72132 55.2715 9.02901 55.5095 8.74906 56.0829C8.46864 56.657 8.70621 57.3492 9.28015 57.6291C11.4292 58.6796 13.735 59.1898 16.024 59.1898C20.0173 59.1894 23.9573 57.6351 26.9106 54.6818C28.2649 53.3275 29.3351 51.765 30.0924 50.0666L35.0738 52.8018C35.2472 52.8971 35.4387 52.9445 35.6302 52.9445C35.8216 52.9445 36.0136 52.8971 36.1865 52.8018L59.2386 40.1441C59.6085 39.9409 59.8383 39.5525 59.8383 39.1307V31.0967C59.8383 30.4582 59.3208 29.9407 58.6823 29.9407C58.0438 29.9407 57.5262 30.4582 57.5262 31.0967V38.4466L36.7898 49.8332V27.1549L43.6335 23.3968V29.3541C43.6335 29.7633 43.8493 30.1416 44.2011 30.3494C44.3826 30.4564 44.5859 30.5101 44.7895 30.5101C44.981 30.5101 45.1729 30.4627 45.3467 30.3669L50.2865 27.648C50.656 27.4448 50.8849 27.0569 50.8849 26.6356V19.4149L57.5262 15.7683V21.8488C57.5262 22.4874 58.0438 23.0049 58.6823 23.0049C59.3208 23.0049 59.8383 22.4874 59.8383 21.8488V13.8148C59.8383 13.393 59.6085 13.0042 59.2386 12.8015ZM35.6302 2.47527L56.2804 13.8148L49.7663 17.3918L29.1161 6.05222L35.6302 2.47527ZM35.6302 25.154L14.98 13.8148L21.7328 10.1065L42.3835 21.4456L35.6302 25.154ZM44.785 20.127L24.1348 8.78786L26.7142 7.37127L47.3648 18.7104L44.785 20.127ZM26.9106 32.9288C24.0052 30.0233 20.1424 28.4234 16.0339 28.4234C15.2567 28.4234 14.4891 28.4807 13.7345 28.5932V15.7683L34.4782 27.159V49.8372L30.8777 47.8602C31.2323 46.5551 31.4156 45.1941 31.4156 43.8051C31.4156 39.6966 29.8157 35.8338 26.9106 32.9288ZM48.5733 25.9523L45.9455 27.3987V22.1275L48.5733 20.6847V25.9523Z" fill="#612902"/>
<path d="M58.6819 25.3103C58.378 25.3103 58.0795 25.4341 57.8646 25.649C57.6496 25.8639 57.5259 26.162 57.5259 26.4663C57.5259 26.7703 57.6496 27.0683 57.8646 27.2833C58.0795 27.4987 58.378 27.6219 58.6819 27.6219C58.9858 27.6219 59.2843 27.4987 59.4993 27.2833C59.7142 27.0683 59.838 26.7703 59.838 26.4663C59.838 26.162 59.7142 25.8639 59.4993 25.649C59.2843 25.4341 58.9858 25.3103 58.6819 25.3103Z" fill="#612902"/>
<path d="M12.1463 44.9604C12.4421 44.9604 12.7383 44.8475 12.9637 44.6222C13.4152 44.1705 13.4152 43.4385 12.9637 42.987L12.163 42.1859H18.9954C20.6527 42.1859 22.001 43.5343 22.001 45.1916C22.001 46.8488 20.6527 48.1973 18.9954 48.1973H14.9469C14.3084 48.1973 13.7909 48.7148 13.7909 49.3533C13.7909 49.9914 14.3084 50.5089 14.9469 50.5089H18.9954C21.9275 50.5089 24.3132 48.1237 24.3132 45.1916C24.3132 42.2594 21.9275 39.8743 18.9954 39.8743H12.163L12.9637 39.0731C13.4152 38.6216 13.4152 37.8896 12.9637 37.438C12.5125 36.9868 11.7805 36.9868 11.3289 37.438L8.55441 40.2125C8.10328 40.664 8.10328 41.396 8.55441 41.8477L11.3289 44.6216C11.5547 44.8475 11.8505 44.9604 12.1463 44.9604Z" fill="#612902"/>
<path d="M5.975 55.0216C5.64625 55.0216 5.31975 54.8816 5.09171 54.6102L5.08946 54.6075C4.67852 54.1189 4.74174 53.39 5.23034 52.9791C5.71895 52.5677 6.44825 52.631 6.85919 53.1195C7.26967 53.6086 7.20781 54.3388 6.71919 54.7497C6.50198 54.9322 6.23781 55.0216 5.975 55.0216Z" fill="#612902"/>
</g>
</g>
</g>
</g>
<defs>
<clipPath id="clip0_109_530">
<rect width="60" height="60" fill="white"/>
</clipPath>
<clipPath id="clip1_109_530">
<rect width="60" height="60" fill="white"/>
</clipPath>
<clipPath id="clip2_109_530">
<rect width="60" height="60" fill="white"/>
</clipPath>
</defs>
</svg>
